# xmcd
#
# Track frame offsets:
#	150
#	20048
#	38621
#	63414
#	85122
#	105650
#	121849
#	139925
#	161872
#	179910
#	198338
#	220034
#	238945
#	257823
#	279421
#	299322
#
# Disc length: 4225 seconds
#
# Revision: 1
# Processed by: cddbd v1.5.1PL0 Copyright (c) Steve Scherf et al.
# Submitted via: audiograbber 1.82.02
#
DISCID=f2107f10
DTITLE=Crusin - Todays Greatest Duets
DYEAR=1900
DGENRE=
TTITLE0=Kids
TTITLE1=New Day
TTITLE2=Stan
TTITLE3=Cruisin'
TTITLE4=If I Told You That
TTITLE5=At The Beginning
TTITLE6=Be Careful
TTITLE7=As
TTITLE8=Could I Have This Kiss Forever
TTITLE9=Turn Your Lights Down Low
TTITLE10=Satisfy You
TTITLE11=Written In The Stars
TTITLE12=Immortality
TTITLE13=Tell Him
TTITLE14=When You Believe
TTITLE15=Private Emotion
EXTD=
EXTT0=
EXTT1=
EXTT2=
EXTT3=
EXTT4=
EXTT5=
EXTT6=
EXTT7=
EXTT8=
EXTT9=
EXTT10=
EXTT11=
EXTT12=
EXTT13=
EXTT14=
EXTT15=
PLAYORDER=
